
<svg width="32" height="32" viewBox="0 0 32 32" fill="none" xmlns="http://www.w3.org/2000/svg">
  <rect width="32" height="32" rx="4" fill="#0447A7"/>
  <path d="M7 10.5C7 9.11929 8.11929 8 9.5 8H22.5C23.8807 8 25 9.11929 25 10.5V21.5C25 22.8807 23.8807 24 22.5 24H9.5C8.11929 24 7 22.8807 7 21.5V10.5Z" fill="white"/>
  <path d="M14.4 19.6V12.4H18.8C19.3 12.4 19.75 12.5 20.15 12.7C20.55 12.9 20.85 13.15 21.05 13.45C21.25 13.75 21.35 14.1 21.35 14.5C21.35 14.85 21.25 15.2 21.05 15.5C20.85 15.8 20.55 16.05 20.15 16.25C19.75 16.45 19.3 16.55 18.8 16.55H16V19.6H14.4ZM16 15.3H18.55C18.95 15.3 19.25 15.2 19.45 15C19.65 14.8 19.75 14.55 19.75 14.25C19.75 13.95 19.65 13.7 19.45 13.5C19.25 13.3 18.95 13.2 18.55 13.2H16V15.3Z" fill="#0447A7"/>
  <path d="M10.5 12.4H12.5L14.2 15.9L15.9 12.4H17.9L15.3 17.1V19.6H13.1V17.1L10.5 12.4Z" fill="#0447A7"/>
</svg>
